<?xml version="1.0" encoding="utf-8"?><svg viewBox="0 0 93 60" xmlns="http://www.w3.org/2000/svg" xmlns:xlink="http://www.w3.org/1999/xlink"><style>:root>svg{display:none}:root>svg:target{display:block}</style><svg fill="none" viewBox="0 0 8 4" id="arrowdown" xmlns="http://www.w3.org/2000/svg"><path d="M3.475 3.894.223.627a.37.37 0 0 1 0-.52.363.363 0 0 1 .516 0l2.994 3.008L6.728.108a.364.364 0 0 1 .516 0 .37.37 0 0 1 0 .52L3.992 3.893a.367.367 0 0 1-.517 0Z" fill="#7CB238"/></svg><svg fill="none" viewBox="0 0 11 18" id="arrowmenu" xmlns="http://www.w3.org/2000/svg"><path d="m.216 9.571 9.008 8.209a.76.76 0 0 0 1.07 0 .75.75 0 0 0 0-1.065L1.83 9l8.464-7.714a.75.75 0 0 0 0-1.065.76.76 0 0 0-1.07 0L.215 8.43A.742.742 0 0 0 0 9a.748.748 0 0 0 .215.571Z" fill="#C1C1C1"/></svg><svg fill="none" viewBox="0 0 18 11" id="arrowup" xmlns="http://www.w3.org/2000/svg"><path d="M8.43.7.22 9.708a.76.76 0 0 0 0 1.07.75.75 0 0 0 1.066 0L9 2.314l7.714 8.464a.75.75 0 0 0 1.066 0 .76.76 0 0 0 0-1.07L9.57.7A.742.742 0 0 0 9 .485.748.748 0 0 0 8.43.7Z" fill="#C1C1C1"/></svg><svg fill="none" viewBox="0 0 47 47" id="btn-list" xmlns="http://www.w3.org/2000/svg"><rect width="47" height="47" rx="3" fill="#F6F6F6"/><path d="M38.4 34h-7.8c-1.436 0-2.6.627-2.6 1.4v4.2c0 .773 1.164 1.4 2.6 1.4h7.8c1.436 0 2.6-.627 2.6-1.4v-4.2c0-.773-1.164-1.4-2.6-1.4ZM16.4 34H8.6c-1.436 0-2.6.627-2.6 1.4v4.2c0 .773 1.164 1.4 2.6 1.4h7.8c1.436 0 2.6-.627 2.6-1.4v-4.2c0-.773-1.164-1.4-2.6-1.4ZM38.4 20h-7.8c-1.436 0-2.6.627-2.6 1.4v4.2c0 .773 1.164 1.4 2.6 1.4h7.8c1.436 0 2.6-.627 2.6-1.4v-4.2c0-.773-1.164-1.4-2.6-1.4ZM16.4 20H8.6c-1.436 0-2.6.627-2.6 1.4v4.2c0 .773 1.164 1.4 2.6 1.4h7.8c1.436 0 2.6-.627 2.6-1.4v-4.2c0-.773-1.164-1.4-2.6-1.4ZM38.4 6h-7.8c-1.436 0-2.6.627-2.6 1.4v4.2c0 .773 1.164 1.4 2.6 1.4h7.8c1.436 0 2.6-.627 2.6-1.4V7.4c0-.773-1.164-1.4-2.6-1.4ZM16.4 6H8.6C7.164 6 6 6.627 6 7.4v4.2c0 .773 1.164 1.4 2.6 1.4h7.8c1.436 0 2.6-.627 2.6-1.4V7.4c0-.773-1.164-1.4-2.6-1.4Z" fill="#C1C1C1"/></svg><svg fill="none" viewBox="0 0 47 47" id="btn-list-active" xmlns="http://www.w3.org/2000/svg"><rect width="47" height="47" rx="3" fill="#F6F6F6"/><path d="M12.044 32.444H7.511c-.834 0-1.511.677-1.511 1.512v4.533C6 39.324 6.677 40 7.511 40h4.533c.835 0 1.512-.676 1.512-1.511v-4.533c0-.835-.677-1.512-1.512-1.512ZM26.211 32.444h-4.533c-.835 0-1.511.677-1.511 1.512v4.533c0 .835.676 1.511 1.51 1.511h4.534c.835 0 1.511-.676 1.511-1.511v-4.533c0-.835-.676-1.512-1.51-1.512ZM40.378 32.444h-4.534c-.834 0-1.51.677-1.51 1.512v4.533c0 .835.676 1.511 1.51 1.511h4.534c.834 0 1.51-.676 1.51-1.511v-4.533c0-.835-.676-1.512-1.51-1.512ZM12.044 19.222H7.511C6.677 19.222 6 19.9 6 20.733v4.534c0 .834.677 1.51 1.511 1.51h4.533c.835 0 1.512-.676 1.512-1.51v-4.534c0-.834-.677-1.51-1.512-1.51ZM26.211 19.222h-4.533c-.835 0-1.511.677-1.511 1.511v4.534c0 .834.676 1.51 1.51 1.51h4.534c.835 0 1.511-.676 1.511-1.51v-4.534c0-.834-.676-1.51-1.51-1.51ZM40.378 19.222h-4.534c-.834 0-1.51.677-1.51 1.511v4.534c0 .834.676 1.51 1.51 1.51h4.534c.834 0 1.51-.676 1.51-1.51v-4.534c0-.834-.676-1.51-1.51-1.51ZM12.044 6H7.511C6.677 6 6 6.677 6 7.511v4.533c0 .835.677 1.512 1.511 1.512h4.533c.835 0 1.512-.677 1.512-1.512V7.511c0-.834-.677-1.511-1.512-1.511ZM26.211 6h-4.533c-.835 0-1.511.677-1.511 1.511v4.533c0 .835.676 1.512 1.51 1.512h4.534c.835 0 1.511-.677 1.511-1.512V7.511c0-.834-.676-1.511-1.51-1.511ZM40.378 6h-4.534c-.834 0-1.51.677-1.51 1.511v4.533c0 .835.676 1.512 1.51 1.512h4.534c.834 0 1.51-.677 1.51-1.512V7.511c0-.834-.676-1.511-1.51-1.511Z" fill="#63A60E"/></svg><svg fill="none" viewBox="0 0 47 47" id="btn-open-filters" xmlns="http://www.w3.org/2000/svg"><rect width="47" height="47" rx="3" fill="#F6F6F6"/><g clip-path="url(#afa)"><path d="M21.78 33.125H9.14C8.51 33.125 8 33.63 8 34.25s.51 1.125 1.139 1.125H21.78c.528 2.567 2.825 4.5 5.58 4.5 2.754 0 5.05-1.933 5.578-4.5h5.809c.629 0 1.139-.504 1.139-1.125 0-.62-.51-1.125-1.14-1.125h-5.808c-.527-2.567-2.824-4.5-5.579-4.5-2.754 0-5.051 1.933-5.579 4.5Zm8.995 1.125c0 1.864-1.529 3.375-3.416 3.375s-3.416-1.51-3.416-3.375c0-1.864 1.53-3.375 3.416-3.375 1.887 0 3.416 1.51 3.416 3.375ZM10.393 21.875H9.139C8.51 21.875 8 22.379 8 23s.51 1.125 1.139 1.125h1.254c.527 2.567 2.824 4.5 5.579 4.5 2.754 0 5.051-1.933 5.578-4.5h17.197c.629 0 1.139-.504 1.139-1.125s-.51-1.125-1.14-1.125H21.55c-.527-2.567-2.824-4.5-5.579-4.5-2.754 0-5.051 1.933-5.578 4.5ZM19.388 23c0 1.864-1.53 3.375-3.417 3.375-1.886 0-3.416-1.51-3.416-3.375 0-1.864 1.53-3.375 3.417-3.375 1.886 0 3.416 1.51 3.416 3.375Zm6.947-12.375H9.14C8.51 10.625 8 11.129 8 11.75s.51 1.125 1.139 1.125h17.197c.527 2.567 2.824 4.5 5.578 4.5 2.755 0 5.052-1.933 5.58-4.5h1.253c.629 0 1.139-.504 1.139-1.125 0-.62-.51-1.125-1.14-1.125h-1.253c-.527-2.567-2.824-4.5-5.579-4.5-2.754 0-5.051 1.933-5.579 4.5Zm8.996 1.125c0 1.864-1.53 3.375-3.417 3.375-1.887 0-3.416-1.51-3.416-3.375 0-1.864 1.53-3.375 3.416-3.375 1.887 0 3.417 1.51 3.417 3.375Z" fill="#63A60E"/></g><defs><clipPath id="afa"><path fill="#fff" transform="translate(8 5)" d="M0 0h31.886v36H0z"/></clipPath></defs></svg><svg fill="none" viewBox="0 0 32 22" id="car" xmlns="http://www.w3.org/2000/svg"><path d="m31.917 13.34-1.62-2.479a3.866 3.866 0 0 0-3.25-1.75h-4.19v-2.41a2.671 2.671 0 0 0-2.669-2.668h-7.841A4.986 4.986 0 0 0 7.459-.01 4.984 4.984 0 0 0 2.48 4.97c0 1.726.884 3.249 2.222 4.142H.508a.508.508 0 1 0 0 1.016h5.08v1.016H3.554a.508.508 0 0 0 0 1.016h2.032v1.015H.508a.508.508 0 1 0 0 1.016h5.08v2.25a2.548 2.548 0 0 0-1.525 2.328v.502c0 .28.228.508.509.508h4.505a2.811 2.811 0 0 0 2.732 2.173c1.33 0 2.445-.93 2.733-2.173h9.773a2.812 2.812 0 0 0 2.733 2.173c1.329 0 2.444-.93 2.733-2.173h1.711c.28 0 .508-.227.508-.508v-5.654a.508.508 0 0 0-.083-.278ZM3.497 4.97a3.968 3.968 0 0 1 3.962-3.963 3.967 3.967 0 0 1 3.963 3.963 3.967 3.967 0 0 1-3.963 3.963A3.968 3.968 0 0 1 3.496 4.97Zm3.106 9.221H7.62a.508.508 0 1 0 0-1.016H6.603V12.16h3.556a.508.508 0 1 0 0-1.016H6.603v-1.016h6.603a.508.508 0 1 0 0-1.016h-2.99a4.976 4.976 0 0 0 2.218-4.064h7.755c.91 0 1.652.742 1.652 1.653v9.522H6.603v-2.031Zm15.238 4.572H14.59a2.797 2.797 0 0 0-.722-1.524h7.974v1.524ZM6.61 17.239h3.142c-.382.413-.642.94-.721 1.524H5.079a1.532 1.532 0 0 1 1.53-1.524Zm5.2 3.697a1.794 1.794 0 0 1-1.793-1.792c0-.988.805-1.792 1.792-1.792.989 0 1.793.804 1.793 1.792s-.804 1.792-1.793 1.792Zm15.238 0a1.794 1.794 0 0 1-1.792-1.792c0-.988.804-1.792 1.792-1.792s1.792.804 1.792 1.792-.804 1.792-1.792 1.792Zm3.936-2.173h-1.157a2.81 2.81 0 0 0-2.78-2.427 2.81 2.81 0 0 0-2.779 2.427h-1.41v-8.635h4.188c.976 0 1.874.482 2.401 1.288l1.537 2.352v4.995Z" fill="#fff"/><path d="M27.878 19.144a.83.83 0 1 1-1.661 0 .83.83 0 0 1 1.662 0ZM12.64 19.144a.83.83 0 1 1-1.661 0 .83.83 0 0 1 1.661 0ZM8.127 4.97V2.748a.508.508 0 1 0-1.016 0v2.056L6.074 6.226a.507.507 0 1 0 .821.598L8.03 5.27a.508.508 0 0 0 .097-.3ZM26.876 10.636h-.971a.508.508 0 0 0-.508.508v3.555c0 .281.227.508.508.508h3.418a.874.874 0 0 0 .764-.44.872.872 0 0 0 .003-.88l-1.187-2.075a2.34 2.34 0 0 0-2.027-1.176Zm-.463 3.556v-2.54h.463c.473 0 .911.254 1.145.664l1.072 1.875h-2.68Z" fill="#fff"/></svg><svg fill="none" viewBox="0 0 32 31" id="cart" xmlns="http://www.w3.org/2000/svg"><path d="M31.798 4.039a.923.923 0 0 0-.721-.347H6.509L5.822.715A.923.923 0 0 0 4.923 0h-4a.923.923 0 0 0 0 1.846H4.19l4.663 20.208c.097.419.47.715.9.715h18.494a.923.923 0 1 0 0-1.846h-17.76l-.71-3.077h18.532c.431 0 .806-.3.9-.72l2.77-12.308a.923.923 0 0 0-.18-.78ZM27.569 16H9.35L6.937 5.538h22.987L27.57 16ZM13.538 24a3.388 3.388 0 0 0-3.384 3.385 3.388 3.388 0 0 0 3.384 3.384 3.388 3.388 0 0 0 3.385-3.384A3.388 3.388 0 0 0 13.538 24Zm0 4.923A1.54 1.54 0 0 1 12 27.385c0-.849.69-1.539 1.538-1.539.849 0 1.539.69 1.539 1.539a1.54 1.54 0 0 1-1.539 1.538ZM24.615 24a3.388 3.388 0 0 0-3.384 3.385 3.388 3.388 0 0 0 3.384 3.384A3.388 3.388 0 0 0 28 27.385 3.388 3.388 0 0 0 24.615 24Zm0 4.923a1.54 1.54 0 0 1-1.538-1.538c0-.849.69-1.539 1.538-1.539.849 0 1.539.69 1.539 1.539a1.54 1.54 0 0 1-1.539 1.538Z" fill="#fff"/></svg><svg fill="none" viewBox="0 0 12 9" id="checkbox" xmlns="http://www.w3.org/2000/svg"><path d="M4.196 8.393a.587.587 0 0 1-.416-.173L.173 4.613a.588.588 0 1 1 .832-.833l3.191 3.19L10.995.174a.588.588 0 1 1 .832.833L4.613 8.22a.588.588 0 0 1-.417.173Z" fill="#505050"/></svg><svg fill="none" viewBox="0 0 33 32" id="facebook" xmlns="http://www.w3.org/2000/svg"><g clip-path="url(#aja)"><path d="M21.65 5.313h2.901V.225C24.051.156 22.33 0 20.325 0c-4.183 0-7.048 2.65-7.048 7.519V12H8.66v5.688h4.616V32h5.659V17.69h4.429L24.068 12h-5.133V8.083c0-1.644.44-2.77 2.715-2.77Z" fill="#fff"/></g><defs><clipPath id="aja"><path fill="#fff" transform="translate(.469)" d="M0 0h31.778v32H0z"/></clipPath></defs></svg><svg fill="none" viewBox="0 0 32 29" id="heart" xmlns="http://www.w3.org/2000/svg"><path d="M29.665 2.777C28.087.987 25.897 0 23.5 0c-3.372 0-5.506 2.014-6.703 3.703-.311.438-.575.878-.797 1.292a12.245 12.245 0 0 0-.797-1.292C14.006 2.013 11.872 0 8.5 0 6.103 0 3.913.986 2.335 2.777.829 4.486 0 6.774 0 9.22c0 2.662 1.04 5.139 3.272 7.793 1.994 2.373 4.864 4.818 8.187 7.65a385.452 385.452 0 0 1 3.883 3.34l.04.035a.935.935 0 0 0 1.236 0l.04-.035c1.364-1.193 2.644-2.284 3.883-3.34 3.323-2.832 6.193-5.277 8.187-7.65C30.96 14.36 32 11.883 32 9.22c0-2.446-.83-4.734-2.335-6.443Zm-10.34 20.46c-1.068.909-2.167 1.845-3.325 2.852-1.158-1.007-2.257-1.943-3.325-2.853-6.503-5.542-10.8-9.203-10.8-14.016 0-1.99.663-3.837 1.866-5.203A6.258 6.258 0 0 1 8.5 1.875c2.57 0 4.232 1.584 5.174 2.912a11.113 11.113 0 0 1 1.435 2.854.937.937 0 0 0 1.782 0c.15-.461.591-1.662 1.436-2.854.94-1.328 2.602-2.912 5.173-2.912 1.851 0 3.541.76 4.759 2.142 1.203 1.366 1.866 3.213 1.866 5.203 0 4.813-4.297 8.474-10.8 14.016Z" fill="#fff"/></svg><svg fill="none" viewBox="0 0 20 32" id="icon-arrow-left" xmlns="http://www.w3.org/2000/svg"><path d="m1.038 17.015 16.014 14.593a1.35 1.35 0 0 0 1.903 0 1.335 1.335 0 0 0 0-1.894L3.907 16 18.953 2.286a1.335 1.335 0 0 0 0-1.894 1.35 1.35 0 0 0-1.903 0L1.037 14.985c-.28.279-.4.648-.382 1.014a1.33 1.33 0 0 0 .383 1.016Z" fill="#505050"/></svg><svg fill="none" viewBox="0 0 33 32" id="instagram" xmlns="http://www.w3.org/2000/svg"><g clip-path="url(#ama)" fill="#fff"><path d="M16.449 7.784c-4.506 0-8.154 3.677-8.154 8.21 0 4.538 3.652 8.211 8.154 8.211 4.505 0 8.153-3.677 8.153-8.21 0-4.538-3.651-8.211-8.153-8.211Zm0 13.54c-2.925 0-5.293-2.385-5.293-5.33 0-2.943 2.369-5.329 5.293-5.329 2.923 0 5.292 2.386 5.292 5.33.001 2.944-2.367 5.329-5.292 5.329Z"/><path d="M22.995.101c-2.924-.137-10.165-.13-13.091 0-2.572.122-4.84.747-6.669 2.588C.18 5.767.57 9.913.57 15.995c0 6.224-.344 10.274 2.665 13.305 3.068 3.088 7.246 2.684 13.214 2.684 6.122 0 8.235.004 10.4-.84 2.944-1.15 5.166-3.8 5.383-8.559.138-2.945.13-10.236 0-13.182C31.97 3.785 28.976.379 22.995.1Zm4.628 27.163C25.619 29.28 22.84 29.1 16.41 29.1c-6.62 0-9.275.099-11.212-1.857-2.231-2.236-1.827-5.827-1.827-11.27C3.37 8.606 2.62 3.3 9.96 2.922c1.688-.06 2.184-.08 6.43-.08l.06.04c7.056 0 12.592-.744 12.925 6.648.075 1.686.092 2.193.092 6.462 0 6.59.124 9.279-1.845 11.27Z"/><path d="M24.925 9.379a1.912 1.912 0 0 0 1.906-1.92c0-1.059-.853-1.918-1.905-1.918A1.912 1.912 0 0 0 23.02 7.46c0 1.06.853 1.919 1.905 1.919Z"/></g><defs><clipPath id="ama"><path fill="#fff" transform="translate(.554)" d="M0 0h31.778v32H0z"/></clipPath></defs></svg><svg fill="none" viewBox="0 0 55 60" id="logo" xmlns="http://www.w3.org/2000/svg"><path opacity=".2" d="M54.648 59.067c0-.512-11.474-.933-25.611-.933-14.138 0-25.612.421-25.612.933S14.9 60 29.037 60c14.17 0 25.611-.421 25.611-.933Z" fill="#5D5D5D"/><path d="M29.398 11.81c11.146 0 20.187 8.277 20.187 18.481v18.482H29.398c-11.145 0-20.186-8.278-20.186-18.482V11.81h20.186Z" fill="#fff"/><path opacity=".3" d="M46.692 20.78c-1.677 1.776-2.696 4.093-2.696 6.622 0 3.762 2.236 7.043 5.556 8.819v-5.93c0-3.461-1.019-6.712-2.86-9.511Z" fill="#fff"/><path d="M38.769 13.947c-3.157 1.655-5.26 4.756-5.26 8.338 0 5.297 4.7 9.602 10.487 9.602 2.038 0 3.945-.542 5.556-1.475v-.12c0-7.104-4.372-13.275-10.783-16.345Z" fill="#fff"/><path opacity=".5" d="M22.922 15.39c-5.195 0-9.962 1.656-13.71 4.456V30.32c0 10.205 9.04 18.482 20.186 18.482h9.666c3.518-3.552 5.655-8.247 5.655-13.425 0-11.046-9.764-19.986-21.797-19.986Z" fill="#F8F6EC"/><path d="m49.552 48.743-20.154.03c-11.145 0-20.186-8.278-20.186-18.482V11.84l40.34 36.903Z" fill="#fff"/><path opacity=".3" d="M12.335 18.432c0 14.026 12.428 25.374 27.716 25.374 1.315 0 2.597-.09 3.846-.24L12.598 14.94a24.621 24.621 0 0 0-.263 3.492Z" fill="#fff"/><path opacity=".3" d="M49.552 48.773 9.376 11.99c4.734 6.472 10.192 13.034 15.748 18.452 4.34 4.214 16.866 13.635 24.428 18.33Z" fill="#fff"/><path opacity=".3" d="M22.395 23.88 9.212 11.84V30.32c0 8.157 5.786 15.08 13.775 17.519-3.419-3.161-5.523-7.495-5.523-12.251 0-4.515 1.874-8.609 4.931-11.71Z" fill="#fff"/><path opacity=".3" d="M40.347 40.345c-3.42 3.822-8.614 6.29-14.434 6.29-3.88 0-7.496-1.083-10.488-2.95 3.617 3.161 8.516 5.118 13.94 5.118h20.187v-.03l-9.205-8.428Z" fill="#fff"/><path opacity=".3" d="M10.395 22.887c0-2.98.56-5.87 1.611-8.519L9.212 11.84V30.32c0 10.204 9.04 18.482 20.186 18.482h20.187v-.03l-2.005-1.836a29.736 29.736 0 0 1-9.337 1.474c-15.387-.03-27.848-11.438-27.848-25.524Z" fill="#F8F6EC"/><path d="M49.224 52.355c1.413-.362 2.893.421 3.254 1.715.395 1.295-.46 2.65-1.907 2.98-1.413.361-2.893-.421-3.254-1.715-.362-1.295.493-2.62 1.907-2.98Zm-.526-1.836c-2.532.632-4.044 2.98-3.354 5.297.657 2.318 3.255 3.702 5.786 3.07 2.532-.632 4.044-3.01 3.354-5.297-.658-2.318-3.255-3.672-5.787-3.07Z" fill="#fff"/><path opacity=".5" d="M52.05 56.177a2.821 2.821 0 0 1-1.446.903c-1.414.361-2.893-.422-3.255-1.716a2.298 2.298 0 0 1 .888-2.498c-.395-.512-.724-1.084-1.052-1.656-1.578 1.024-2.367 2.86-1.841 4.666.657 2.318 3.254 3.702 5.786 3.07 1.184-.3 2.137-.963 2.762-1.836a34.044 34.044 0 0 1-1.841-.933Z" fill="#fff"/><path d="M10.165 52.355c1.413-.331 2.893.451 3.255 1.745.361 1.295-.494 2.65-1.907 2.98-1.414.331-2.894-.451-3.255-1.745-.362-1.295.493-2.65 1.907-2.98Zm-.526-1.836c-2.532.602-4.044 2.98-3.387 5.297.658 2.318 3.255 3.702 5.787 3.1 2.531-.602 4.044-2.98 3.419-5.297-.69-2.318-3.288-3.703-5.82-3.1Z" fill="#fff"/><path opacity=".5" d="M12.96 56.207a2.596 2.596 0 0 1-1.447.873c-1.414.331-2.893-.452-3.255-1.746-.263-.963.132-1.926.888-2.498-.395-.512-.723-1.084-1.02-1.656-1.577.994-2.4 2.83-1.873 4.636.657 2.317 3.254 3.702 5.786 3.1 1.184-.27 2.17-.963 2.762-1.836-.658-.24-1.25-.542-1.841-.873Z" fill="#fff"/><path d="M10.494 10.546c-.625 0-1.15-.482-1.15-1.054 0-2.468-.757-4.334-2.204-5.568-2.334-2.017-5.852-1.806-5.885-1.806-.624.06-1.183-.392-1.25-.964C-.06.582.434.071 1.059.011c.197 0 4.537-.301 7.628 2.317 1.972 1.656 2.959 4.064 2.959 7.134 0 .602-.494 1.084-1.151 1.084Z" fill="#fff"/></svg><svg fill="none" viewBox="0 0 55 60" id="logobtn" xmlns="http://www.w3.org/2000/svg"><path opacity=".2" d="M54.648 59.067c0-.512-11.474-.933-25.611-.933-14.138 0-25.612.421-25.612.933S14.899 60 29.037 60c14.17 0 25.611-.421 25.611-.933Z" fill="#5D5D5D"/><path d="M29.398 11.81c11.146 0 20.187 8.277 20.187 18.481v18.482H29.398c-11.145 0-20.186-8.278-20.186-18.482V11.81h20.186Z" fill="#63A60E"/><path opacity=".3" d="M46.692 20.78c-1.677 1.775-2.696 4.093-2.696 6.622 0 3.762 2.236 7.043 5.556 8.819v-5.93c0-3.461-1.019-6.712-2.86-9.511Z" fill="#63A60E"/><path d="M38.769 13.947c-3.157 1.655-5.26 4.756-5.26 8.338 0 5.297 4.7 9.602 10.487 9.602 2.038 0 3.945-.542 5.556-1.475v-.12c0-7.104-4.372-13.275-10.783-16.345Z" fill="#63A60E"/><path opacity=".5" d="M22.922 15.39c-5.195 0-9.962 1.656-13.71 4.456V30.32c0 10.205 9.041 18.482 20.187 18.482h9.666c3.517-3.552 5.654-8.247 5.654-13.425 0-11.046-9.764-19.986-21.797-19.986Z" fill="#E0EDCF"/><path d="m49.552 48.743-20.154.03c-11.145 0-20.186-8.278-20.186-18.482V11.84l40.34 36.903Z" fill="#63A60E"/><path opacity=".3" d="M12.335 18.432c0 14.026 12.428 25.374 27.716 25.374 1.315 0 2.597-.09 3.846-.24L12.598 14.94a24.621 24.621 0 0 0-.263 3.492Z" fill="#63A60E"/><path opacity=".3" d="M49.552 48.773 9.376 11.99c4.734 6.472 10.192 13.034 15.748 18.452 4.34 4.214 16.866 13.635 24.428 18.33Z" fill="#63A60E"/><path opacity=".3" d="M22.396 23.88 9.212 11.84V30.32c0 8.157 5.786 15.08 13.775 17.519-3.419-3.161-5.523-7.495-5.523-12.251 0-4.515 1.874-8.609 4.932-11.71Z" fill="#63A60E"/><path opacity=".3" d="M40.347 40.345c-3.42 3.822-8.614 6.29-14.434 6.29-3.88 0-7.496-1.083-10.488-2.95 3.617 3.161 8.516 5.118 13.94 5.118h20.187v-.03l-9.205-8.428Z" fill="#63A60E"/><path opacity=".3" d="M10.395 22.887c0-2.98.56-5.87 1.611-8.519L9.212 11.84V30.32c0 10.204 9.041 18.482 20.187 18.482h20.186v-.03l-2.005-1.836a29.736 29.736 0 0 1-9.337 1.474c-15.387-.03-27.848-11.438-27.848-25.524Z" fill="#E0EDCF"/><path d="M49.224 52.355c1.413-.362 2.893.421 3.254 1.715.395 1.295-.46 2.65-1.907 2.98-1.413.361-2.893-.421-3.254-1.715-.362-1.295.493-2.62 1.907-2.98Zm-.527-1.836c-2.531.632-4.044 2.98-3.353 5.297.657 2.318 3.255 3.702 5.786 3.07 2.532-.632 4.044-3.01 3.354-5.297-.658-2.318-3.255-3.672-5.787-3.07Z" fill="#63A60E"/><path opacity=".5" d="M52.05 56.177a2.822 2.822 0 0 1-1.446.903c-1.414.361-2.893-.422-3.255-1.716a2.298 2.298 0 0 1 .888-2.498c-.395-.512-.724-1.084-1.052-1.656-1.579 1.024-2.368 2.86-1.842 4.666.658 2.318 3.255 3.702 5.787 3.07 1.183-.3 2.137-.963 2.762-1.836a34.044 34.044 0 0 1-1.842-.933Z" fill="#63A60E"/><path d="M10.165 52.355c1.414-.331 2.893.451 3.255 1.745.361 1.295-.493 2.65-1.907 2.98-1.414.331-2.893-.451-3.255-1.745-.362-1.295.493-2.65 1.907-2.98Zm-.526-1.836c-2.532.602-4.044 2.98-3.387 5.297.658 2.318 3.255 3.702 5.787 3.1 2.531-.602 4.044-2.98 3.419-5.297-.69-2.318-3.288-3.703-5.82-3.1Z" fill="#63A60E"/><path opacity=".5" d="M12.96 56.207a2.596 2.596 0 0 1-1.447.873c-1.414.331-2.893-.452-3.255-1.746-.263-.963.132-1.926.888-2.498-.395-.512-.723-1.084-1.02-1.656-1.577.994-2.4 2.83-1.873 4.636.657 2.317 3.255 3.702 5.786 3.1 1.184-.27 2.17-.963 2.762-1.836a12.63 12.63 0 0 1-1.841-.873Z" fill="#63A60E"/><path d="M10.494 10.546c-.625 0-1.15-.482-1.15-1.054 0-2.468-.757-4.334-2.204-5.568-2.334-2.017-5.852-1.806-5.885-1.806-.624.06-1.183-.392-1.25-.964C-.06.582.434.071 1.059.011c.197 0 4.537-.301 7.628 2.317 1.972 1.656 2.959 4.064 2.959 7.134 0 .602-.494 1.084-1.151 1.084Z" fill="#63A60E"/></svg><svg fill="none" viewBox="0 0 49 29" id="mc" xmlns="http://www.w3.org/2000/svg"><g clip-path="url(#apa)" fill="#fff"><path d="M33.933 0a14.433 14.433 0 0 0-9.721 3.748A14.442 14.442 0 0 0 14.495.003h-.093C6.444.055 0 6.529 0 14.498c0 8.001 6.494 14.494 14.494 14.494 3.737 0 7.145-1.417 9.716-3.745a14.336 14.336 0 0 1-1.482-1.584h2.993a14.492 14.492 0 0 1-1.472 1.553h-.002c-.012.013-.025.021-.037.032a14.44 14.44 0 0 0 9.728 3.749c8.005-.003 14.492-6.495 14.49-14.499v-.007C48.429 6.487 41.938-.002 33.933 0ZM22.894 5.245h2.755c.406.492.783 1.01 1.125 1.552h-4.915a21.68 21.68 0 0 1 1.035-1.552Zm-1.891 3.074h6.607c.235.502.443 1.021.625 1.553H20.22c.08-.15.36-.754.783-1.553ZM5.917 18.19l.879-5.542-1.983 5.542H3.75l-.138-5.542-.939 5.542H1.184l1.234-7.35H4.67l.079 4.51 1.521-4.51h2.443l-1.217 7.35H5.917Zm5.265-.012.051-.587c-.024.003-.494.709-1.583.709-.57 0-1.49-.311-1.49-1.663 0-1.719 1.402-2.289 2.737-2.289.21 0 .663.038.663.038s.051-.105.051-.389c0-.467-.42-.531-.995-.531-1.013 0-1.682.271-1.682.271l.224-1.33s.812-.34 1.869-.34c.547 0 2.12.058 2.12 1.861l-.606 4.25h-1.359Zm5.743-1.872c0 2.051-1.987 1.963-2.334 1.963-1.295 0-1.695-.179-1.732-.189l.206-1.35c.002-.012.65.235 1.371.235.416 0 .956-.041.956-.538 0-.744-1.932-.566-1.932-2.333 0-1.559 1.158-2.015 2.3-2.015.882 0 1.424.121 1.424.121l-.195 1.362s-.837-.069-1.054-.069c-.549 0-.848.12-.848.504-.001.772 1.838.394 1.838 2.309Zm2.386.538c.137 0 .292-.047.398-.047l-.193 1.311c-.155.043-.594.199-1.157.203-.719.006-1.23-.396-1.23-1.308 0-.612.877-5.655.911-5.688h1.543l-.157.902h.77l-.197 1.453h-.817l-.434 2.677c-.033.213.026.497.563.497Zm3.394-4.797c1.694 0 2.201 1.24 2.201 2.257 0 .407-.204 1.407-.204 1.407h-3.136s-.29 1.235 1.367 1.235c.777 0 1.639-.38 1.639-.38l-.272 1.487s-.498.254-1.63.254c-1.227 0-2.666-.519-2.666-2.699.001-1.889 1.149-3.561 2.701-3.561Zm4.087 10.123H21.65c-.313-.5-.605-1.013-.856-1.552h6.843a14.886 14.886 0 0 1-.845 1.552Zm-.345-3.969h-1.584l.963-5.982h1.437l-.138.867s.512-.943 1.203-.943c.201 0 .298.02.298.02-.205.418-.386.801-.574 1.79-1.072-.38-1.154 1.693-1.605 4.248Zm6.035-.093s-.83.212-1.35.212c-1.842 0-2.777-1.271-2.777-3.196 0-2.903 1.733-4.449 3.514-4.449.805 0 1.738.378 1.738.378l-.252 1.635s-.631-.441-1.416-.441c-1.05 0-1.992 1.002-1.992 2.823 0 .897.439 1.733 1.535 1.733.521 0 1.276-.379 1.276-.379l-.276 1.684Zm3.715.073.052-.591c-.025.003-.495.709-1.583.709-.57 0-1.49-.311-1.49-1.663 0-1.719 1.402-2.289 2.736-2.289.21 0 .664.038.664.038s.052-.104.052-.388c0-.467-.42-.531-.996-.531-1.013 0-1.681.271-1.681.271l.224-1.33s.812-.34 1.87-.34c.546 0 2.12.058 2.119 1.861l-.606 4.25c-.001.003-1.361.003-1.361.003Zm3.207.02H37.82l.963-5.982h1.438l-.138.867s.513-.943 1.204-.943c.201 0 .297.02.297.02-.204.418-.387.801-.574 1.79-1.073-.38-1.155 1.693-1.606 4.248Zm4.729-.016.067-.551s-.512.646-1.438.646c-1.283 0-1.912-1.239-1.912-2.505 0-1.958 1.178-3.665 2.592-3.665.91.002 1.491.805 1.491.805l.334-2.065 1.547-.003-1.18 7.338h-1.501Zm3.052-.207a.461.461 0 0 1-.406.237.471.471 0 0 1-.404-.237.464.464 0 0 1 0-.466.475.475 0 0 1 .404-.236c.08 0 .156.021.23.062a.461.461 0 0 1 .176.64ZM47.061 22.4c-.01-.006-.019-.017-.035-.023a.245.245 0 0 0-.08-.01h-.094v.15h.1c.047 0 .078-.003.096-.02a.066.066 0 0 0 .025-.055.075.075 0 0 0-.012-.041Z"/><path d="M11.022 15.495c-1.13 0-1.36.508-1.36.93 0 .219.125.583.604.583.93 0 1.122-1.218 1.092-1.477-.044-.01-.072-.035-.336-.036ZM22.711 13.428c-.841 0-1.003.957-1.003 1.058h1.713c0-.077.161-1.058-.71-1.058ZM43.709 13.595c-.68 0-1.216.788-1.215 1.985 0 .73.26 1.198.816 1.198.836 0 1.239-1.091 1.239-1.904 0-.897-.285-1.279-.84-1.279ZM47.115 17.552a.377.377 0 0 0-.146-.145.381.381 0 0 0-.528.145.403.403 0 0 0-.053.195c0 .067.018.133.05.194a.409.409 0 0 0 .34.2c.067 0 .133-.02.193-.054a.388.388 0 0 0 .144-.535Zm-.217.452-.045-.078a.404.404 0 0 0-.084-.118.102.102 0 0 0-.066-.019h-.046v.214h-.084v-.504h.175c.059 0 .103.005.128.016a.143.143 0 0 1 .064.048.116.116 0 0 1 .023.074.136.136 0 0 1-.04.096c-.026.029-.062.041-.104.046.02.008.033.017.043.026a.51.51 0 0 1 .074.099l.062.1h-.1ZM36.039 15.495c-1.131 0-1.36.508-1.36.93 0 .219.124.583.604.583.929 0 1.121-1.218 1.092-1.477-.045-.01-.073-.035-.336-.036Z"/><path d="M46.864 17.602a.091.091 0 0 0-.034-.025.283.283 0 0 0-.082-.01h-.091v.153h.099c.047 0 .078-.006.097-.021a.078.078 0 0 0 .024-.056.067.067 0 0 0-.013-.041Z"/></g><defs><clipPath id="apa"><path fill="#fff" d="M0 0h49v29H0z"/></clipPath></defs></svg><svg fill="none" viewBox="0 0 26 20" id="nav_icon" xmlns="http://www.w3.org/2000/svg"><path fill="#31352B" d="M.842 0h24.793v1.12H.842zM.842 8.96h19.834v1.12H.842zM.842 17.92h24.793v1.12H.842z"/></svg><svg fill="none" viewBox="0 0 26 17" id="nav_icon-filter" xmlns="http://www.w3.org/2000/svg"><path fill="#63A60E" d="M.917 0h24.896v1H.917zM.917 8h19.917v1H.917zM.917 16h24.896v1H.917z"/></svg><svg fill="none" viewBox="0 0 23 23" id="phone" xmlns="http://www.w3.org/2000/svg"><path d="m21.463 16.589-3.194-3.196a2.276 2.276 0 0 0-1.617-.662c-.64 0-1.242.252-1.698.708l-1.244 1.243c-.966-.537-2.25-1.275-3.583-2.609-1.332-1.332-2.07-2.612-2.61-3.583l1.244-1.244c.926-.927.945-2.415.043-3.316L5.61.737A2.266 2.266 0 0 0 3.993.072 2.39 2.39 0 0 0 2.324.75C2.05.97.674 2.186.161 4.69c-.718 3.507.932 6.882 5.695 11.648 5.322 5.32 9.865 5.733 11.13 5.733.264 0 .423-.017.465-.021 2.482-.291 3.37-1.393 4.02-2.198.84-1.043.837-2.416-.008-3.264Zm-1.06 2.403c-.61.756-1.186 1.47-3.111 1.697-.001 0-.107.011-.306.011-1.132 0-5.211-.384-10.16-5.331C2.433 10.974.891 7.96 1.504 4.966c.448-2.185 1.635-3.114 1.682-3.15l.04-.03.036-.036a1.03 1.03 0 0 1 .73-.307c.25 0 .479.093.648.263L7.834 4.9c.368.367.348.985-.043 1.377L6.384 7.683l-.023.024c-.367.404-.324.95-.122 1.306.583 1.052 1.382 2.493 2.918 4.03 1.532 1.531 2.97 2.33 4.02 2.911.104.06.321.158.593.158.32 0 .615-.136.832-.383l1.321-1.32c.197-.198.456-.306.728-.306.25 0 .48.093.649.261l3.192 3.193c.405.407.238 1.03-.09 1.435ZM13.388 3.432c1.178.135 2.566.849 3.534 1.818.978.977 1.693 2.379 1.822 3.57a.686.686 0 1 0 1.364-.148c-.164-1.506-1.013-3.189-2.216-4.392-1.192-1.192-2.858-2.04-4.347-2.21a.686.686 0 1 0-.157 1.362ZM12.748 6.304c.637.073 1.519.546 2.096 1.123.583.583 1.056 1.473 1.126 2.117a.686.686 0 1 0 1.363-.147c-.119-1.1-.849-2.269-1.52-2.94-.664-.664-1.821-1.39-2.909-1.516a.685.685 0 1 0-.156 1.363Z" fill="#fff"/></svg><svg fill="none" viewBox="0 0 21 20" id="search" xmlns="http://www.w3.org/2000/svg"><path d="M9.02 16.472C4.477 16.472.78 12.777.78 8.236S4.476 0 9.02 0c4.545 0 8.242 3.695 8.242 8.236s-3.697 8.236-8.242 8.236Zm0-14.91c-3.682 0-6.679 2.994-6.679 6.674s2.997 6.675 6.68 6.675 6.68-2.995 6.68-6.675c0-3.68-2.997-6.675-6.68-6.675Zm11.53 18.21a.78.78 0 0 0 0-1.105l-3.496-3.493a.782.782 0 0 0-1.105 1.104l3.496 3.493a.779.779 0 0 0 1.105 0Z" fill="#31352B"/></svg><svg fill="none" viewBox="0 0 24 24" id="search-menu" xmlns="http://www.w3.org/2000/svg"><path d="M9.89 19.766C4.438 19.766 0 15.332 0 9.883 0 4.433 4.437 0 9.89 0c5.454 0 9.891 4.433 9.891 9.883 0 5.45-4.437 9.883-9.89 9.883Zm0-17.893c-4.42 0-8.015 3.593-8.015 8.01 0 4.416 3.596 8.01 8.016 8.01s8.015-3.594 8.015-8.01c0-4.417-3.595-8.01-8.015-8.01Zm13.835 21.852a.936.936 0 0 0 0-1.325l-4.195-4.192a.938.938 0 0 0-1.326 1.325l4.196 4.192a.935.935 0 0 0 1.326 0Z" fill="#fff"/></svg><svg fill="none" viewBox="0 0 32 29" id="select" xmlns="http://www.w3.org/2000/svg"><path d="M29.665 2.777C28.087.987 25.897 0 23.5 0c-3.372 0-5.506 2.014-6.703 3.703-.311.438-.575.878-.797 1.292a12.245 12.245 0 0 0-.797-1.292C14.006 2.013 11.872 0 8.5 0 6.103 0 3.913.986 2.335 2.777.829 4.486 0 6.774 0 9.22c0 2.662 1.04 5.139 3.272 7.793 1.994 2.373 4.864 4.818 8.187 7.65a385.452 385.452 0 0 1 3.883 3.34l.04.035a.935.935 0 0 0 1.236 0l.04-.035c1.364-1.193 2.644-2.284 3.883-3.34 3.323-2.832 6.193-5.277 8.187-7.65C30.96 14.36 32 11.883 32 9.22c0-2.446-.83-4.734-2.335-6.443Zm-10.34 20.46c-1.068.909-2.167 1.845-3.325 2.852-1.158-1.007-2.257-1.943-3.325-2.853-6.503-5.542-10.8-9.203-10.8-14.016 0-1.99.663-3.837 1.866-5.203A6.258 6.258 0 0 1 8.5 1.875c2.57 0 4.232 1.584 5.174 2.912a11.113 11.113 0 0 1 1.435 2.854.937.937 0 0 0 1.782 0c.15-.461.591-1.662 1.436-2.854.94-1.328 2.602-2.912 5.173-2.912 1.851 0 3.541.76 4.759 2.142 1.203 1.366 1.866 3.213 1.866 5.203 0 4.813-4.297 8.474-10.8 14.016Z" fill="#C1C1C1"/></svg><svg fill="none" viewBox="0 0 16 16" id="star" xmlns="http://www.w3.org/2000/svg"><path d="M.023 6.164a.469.469 0 0 1 .378-.319l4.96-.72L7.58.63a.469.469 0 0 1 .84 0l2.219 4.495 4.96.72a.469.469 0 0 1 .26.8l-3.59 3.498.848 4.94a.469.469 0 0 1-.68.495L8 13.245l-4.436 2.333a.469.469 0 0 1-.68-.495l.847-4.94-3.59-3.498a.469.469 0 0 1-.118-.48Z" fill="#FFB800"/></svg><svg fill="none" viewBox="0 0 33 32" id="telegram" xmlns="http://www.w3.org/2000/svg"><g clip-path="url(#axa)"><path d="m13.328 20.241-.526 7.446c.753 0 1.078-.326 1.469-.716l3.526-3.393 7.306 5.387c1.34.753 2.284.357 2.646-1.24l4.796-22.63.001-.002c.425-1.994-.716-2.774-2.022-2.285L2.334 13.676c-1.924.752-1.895 1.832-.327 2.322l7.207 2.257 16.74-10.548c.788-.526 1.505-.235.916.29L13.328 20.241Z" fill="#fff"/></g><defs><clipPath id="axa"><path fill="#fff" transform="translate(.86)" d="M0 0h31.778v32H0z"/></clipPath></defs></svg><svg fill="none" viewBox="0 0 25 32" id="user" xmlns="http://www.w3.org/2000/svg"><path d="M22.678 19.943a12.5 12.5 0 0 0-4.085-3.779 9.242 9.242 0 0 0 3.093-6.902C21.686 4.155 17.531 0 12.424 0S3.162 4.155 3.162 9.262a9.242 9.242 0 0 0 3.092 6.902 12.5 12.5 0 0 0-4.085 3.779A12.322 12.322 0 0 0 0 26.936V32h24.848v-5.064c0-2.505-.75-4.923-2.17-6.993ZM5.101 9.263c0-4.039 3.285-7.324 7.323-7.324s7.323 3.285 7.323 7.323-3.285 7.323-7.323 7.323S5.1 13.3 5.1 9.262ZM1.939 30.06v-3.125c0-4.109 2.38-7.794 6.101-9.516a9.205 9.205 0 0 0 4.384 1.104c1.585 0 3.078-.4 4.383-1.104 3.721 1.722 6.101 5.407 6.101 9.516v3.125H1.94Z" fill="#fff"/></svg><svg fill="none" viewBox="0 0 93 29" id="visa" xmlns="http://www.w3.org/2000/svg"><g clip-path="url(#aza)" fill="#fff"><path d="m37.109.474-4.71 27.58h7.533L44.646.475h-7.537ZM26.083.505l-7.378 18.81-.787-2.84C16.463 13.051 12.332 8.137 7.483 5.04l6.746 23.001 7.971-.013L34.063.499l-7.98.006Z"/><path d="M15.058 2.479C14.62.799 13.351.298 11.776.238H.096L0 .787c9.089 2.2 15.103 7.501 17.598 13.875L15.058 2.48ZM59.913 5.761c2.465-.038 4.251.5 5.638 1.056l.68.319 1.02-5.978C65.759.6 63.42 0 60.502 0c-7.444 0-12.69 3.741-12.731 9.102-.049 3.961 3.737 6.173 6.597 7.494 2.935 1.353 3.92 2.213 3.906 3.422-.023 1.846-2.34 2.693-4.505 2.693-3.016 0-4.619-.416-7.093-1.444l-.97-.441-1.06 6.173c1.763.771 5.016 1.434 8.393 1.47 7.919 0 13.065-3.697 13.119-9.426.033-3.134-1.976-5.525-6.33-7.487-2.635-1.28-4.247-2.131-4.232-3.422 0-1.147 1.368-2.373 4.317-2.373ZM86.583.505h-5.82c-1.808 0-3.153.49-3.947 2.289L65.631 28.07h7.91s1.291-3.399 1.584-4.143c.866 0 8.552.012 9.647.012.224.962.918 4.131.918 4.131h6.988L86.583.505Zm-9.29 17.777c.62-1.584 3-7.709 3-7.709-.04.076.615-1.595 1.004-2.633l.508 2.378 1.746 7.964h-6.258Z"/></g><defs><clipPath id="aza"><path fill="#fff" d="M0 0h93v29H0z"/></clipPath></defs></svg><svg fill="none" viewBox="0 0 32 32" id="youtube" xmlns="http://www.w3.org/2000/svg"><g clip-path="url(#baa)"><path d="m31.24 7.905.039.262c-.384-1.372-1.42-2.43-2.738-2.816l-.028-.007c-2.478-.677-12.447-.677-12.447-.677s-9.944-.014-12.446.677A4.045 4.045 0 0 0 .862 8.14l-.007.028c-.925 4.868-.932 10.717.041 15.93l-.04-.265c.383 1.372 1.42 2.43 2.737 2.816l.028.007c2.475.678 12.447.678 12.447.678s9.942 0 12.446-.678a4.044 4.044 0 0 0 2.76-2.795l.006-.028c.421-2.264.662-4.87.662-7.53l-.001-.295.001-.307a43.3 43.3 0 0 0-.703-7.795ZM12.885 20.868v-9.724l8.297 4.87-8.297 4.854Z" fill="#fff"/></g><defs><clipPath id="baa"><path fill="#fff" transform="translate(.164)" d="M0 0h31.778v32H0z"/></clipPath></defs></svg></svg>