<svg width="47" height="47" fill="none" xmlns="http://www.w3.org/2000/svg"><rect width="47" height="47" rx="3" fill="#F6F6F6"/><path d="M12.044 32.444H7.511c-.834 0-1.511.677-1.511 1.512v4.533C6 39.324 6.677 40 7.511 40h4.533c.835 0 1.512-.676 1.512-1.511v-4.533c0-.835-.677-1.512-1.512-1.512zm14.167 0h-4.533c-.835 0-1.511.677-1.511 1.512v4.533A1.51 1.51 0 0021.677 40h4.534a1.51 1.51 0 001.511-1.511v-4.533c0-.835-.676-1.512-1.51-1.512zm14.167 0h-4.534c-.834 0-1.51.677-1.51 1.512v4.533A1.51 1.51 0 0035.844 40h4.534a1.51 1.51 0 001.51-1.511v-4.533c0-.835-.676-1.512-1.51-1.512zM12.044 19.222H7.511C6.677 19.222 6 19.9 6 20.733v4.534c0 .834.677 1.51 1.511 1.51h4.533c.835 0 1.512-.676 1.512-1.51v-4.534c0-.834-.677-1.51-1.512-1.51zm14.167 0h-4.533c-.835 0-1.511.677-1.511 1.511v4.534c0 .834.676 1.51 1.51 1.51h4.534a1.51 1.51 0 001.511-1.51v-4.534a1.51 1.51 0 00-1.51-1.51zm14.167 0h-4.534a1.51 1.51 0 00-1.51 1.511v4.534c0 .834.676 1.51 1.51 1.51h4.534a1.51 1.51 0 001.51-1.51v-4.534a1.51 1.51 0 00-1.51-1.51zM12.044 6H7.511C6.677 6 6 6.677 6 7.511v4.533c0 .835.677 1.512 1.511 1.512h4.533c.835 0 1.512-.677 1.512-1.512V7.511c0-.834-.677-1.511-1.512-1.511zm14.167 0h-4.533c-.835 0-1.511.677-1.511 1.511v4.533c0 .835.676 1.512 1.51 1.512h4.534c.835 0 1.511-.677 1.511-1.512V7.511A1.51 1.51 0 0026.212 6zm14.167 0h-4.534a1.51 1.51 0 00-1.51 1.511v4.533c0 .835.676 1.512 1.51 1.512h4.534c.834 0 1.51-.677 1.51-1.512V7.511A1.51 1.51 0 0040.378 6z" fill="#63A60E"/></svg>