<svg width="47" height="47" fill="none" xmlns="http://www.w3.org/2000/svg"><rect width="47" height="47" rx="3" fill="#F6F6F6"/><g clip-path="url(#clip0_862_5405)"><path d="M21.78 33.125H9.14c-.63 0-1.14.505-1.14 1.125s.51 1.125 1.139 1.125H21.78c.528 2.567 2.825 4.5 5.58 4.5 2.754 0 5.05-1.933 5.578-4.5h5.809c.629 0 1.139-.504 1.139-1.125 0-.62-.51-1.125-1.14-1.125h-5.808c-.527-2.567-2.824-4.5-5.579-4.5-2.754 0-5.051 1.933-5.579 4.5zm8.995 1.125c0 1.864-1.529 3.375-3.416 3.375s-3.416-1.51-3.416-3.375c0-1.864 1.53-3.375 3.416-3.375 1.887 0 3.416 1.51 3.416 3.375zM10.393 21.875H9.139C8.51 21.875 8 22.379 8 23s.51 1.125 1.139 1.125h1.254c.527 2.567 2.824 4.5 5.579 4.5 2.754 0 5.051-1.933 5.578-4.5h17.197c.629 0 1.139-.504 1.139-1.125s-.51-1.125-1.14-1.125H21.55c-.527-2.567-2.824-4.5-5.579-4.5-2.754 0-5.051 1.933-5.578 4.5zM19.388 23c0 1.864-1.53 3.375-3.417 3.375-1.886 0-3.416-1.51-3.416-3.375 0-1.864 1.53-3.375 3.417-3.375 1.886 0 3.416 1.51 3.416 3.375zm6.947-12.375H9.14c-.63 0-1.14.504-1.14 1.125s.51 1.125 1.139 1.125h17.197c.527 2.567 2.824 4.5 5.578 4.5 2.755 0 5.052-1.933 5.58-4.5h1.253c.629 0 1.139-.504 1.139-1.125 0-.62-.51-1.125-1.14-1.125h-1.253c-.527-2.567-2.824-4.5-5.579-4.5-2.754 0-5.051 1.933-5.579 4.5zm8.996 1.125c0 1.864-1.53 3.375-3.417 3.375-1.887 0-3.416-1.51-3.416-3.375 0-1.864 1.53-3.375 3.416-3.375 1.887 0 3.417 1.51 3.417 3.375z" fill="#63A60E"/></g><defs><clipPath id="clip0_862_5405"><path fill="#fff" transform="translate(8 5)" d="M0 0h31.886v36H0z"/></clipPath></defs></svg>